<?xml version="1.0" encoding="utf-8"?>
<!-- Generator: Adobe Illustrator 26.0.0, SVG Export Plug-In . SVG Version: 6.00 Build 0)  -->
<svg version="1.1" id="Layer_1" xmlns="http://www.w3.org/2000/svg" xmlns:xlink="http://www.w3.org/1999/xlink" x="0px" y="0px"
	 viewBox="0 0 800 800" enable-background="new 0 0 800 800" xml:space="preserve">
<path d="M400,787.5c-52.3,0-103.1-10.2-150.8-30.4c-46.1-19.5-87.6-47.5-123.2-83s-63.5-77-83-123.2C22.7,503.1,12.5,452.3,12.5,400
	c0-52.3,10.2-103.1,30.4-150.8C62.5,203,90.4,161.6,126,126s77-63.5,123.2-83c47.8-20.2,98.5-30.4,150.8-30.4
	c52.3,0,103.1,10.2,150.8,30.4C597,62.5,638.4,90.4,674,126s63.5,77,83,123.2c20.2,47.8,30.4,98.5,30.4,150.8
	c0,52.3-10.2,103.1-30.4,150.8c-19.5,46.1-47.5,87.6-83,123.2s-77,63.5-123.2,83C503.1,777.3,452.3,787.5,400,787.5z"/>
<g>
	<defs>
		<circle id="SVGID_1_" cx="400" cy="400" r="400"/>
	</defs>
	<clipPath id="SVGID_00000183963672112274325650000008594357370632983713_">
		<use xlink:href="#SVGID_1_"  overflow="visible"/>
	</clipPath>
	<g clip-path="url(#SVGID_00000183963672112274325650000008594357370632983713_)">
		<g>
			<path fill="#D1D3D4" d="M718.2,654.2c0,0-97,148.6-304,148.6C165.7,802.7,81.8,654,81.8,654c0-0.6,0.1-1.2,0.1-1.8
				c1.5-9.7,14.5-18.7,28.8-18.7c9.7,0,18.2,3.4,23.2,8.5c0-0.3,0-0.6,0-0.9c-0.1-0.9-0.1-1.9-0.1-2.8c0-35.3,42.3-63.9,94.4-63.9
				c19.2,0,37,3.9,51.9,10.5c4.4-6.4,13.9-10.9,25.1-10.9c1.6,0,3.1,0.1,4.6,0.3c0.1-16.1,19.3-29.1,43.1-29.1
				c5.3,0,10.3,0.7,14.9,1.8c0-0.2,0.1-0.4,0.1-0.6c-0.2-0.9-0.4-1.9-0.4-2.8c0-10.8,13-19.6,28.9-19.6c2.2,0,4.4,0.2,6.5,0.5
				l16.2-28.9h26.7l16.5,29.4c12.2,2.6,21.3,9.7,23.2,18.4c3.8-1,7.8-1.5,12.1-1.5c18.6,0,33.7,10.2,33.7,22.8c0,1-0.1,2-0.3,2.9
				c0.1,0.7,0.2,1.3,0.2,2h0.1c26.2,0,48.1,12.2,54.1,28.6c11.7-3.5,24.7-5.5,38.4-5.5C674.8,592.8,716.2,620.1,718.2,654.2z"/>
		</g>
		<g>
			<path fill="#D1D3D4" d="M643.9,561.5c-0.3-3.5-4.6-6.2-9.8-6.2c-4.2,0-7.8,1.8-9.2,4.3c-1.8-1.4-4.4-2.2-7.3-2.2
				c-5.5,0-9.9,3-9.9,6.7c0,2.6,2.1,4.8,5.2,5.9c-1.5,1.2-2.4,2.7-2.4,4.4c0,3.7,4.4,6.6,9.8,6.6c1.9,0,3.6-0.4,5.1-1c0,0,0,0,0,0
				c-0.1,0.3-0.1,0.6-0.1,1c0,2.7,3.2,4.8,7.1,4.8c3.9,0,7.1-2.2,7.1-4.8c0-0.4-0.1-0.8-0.2-1.1c1.2,0.2,2.5,0.4,3.8,0.4
				c7.7,0,13.9-4.2,13.9-9.4C657,565.9,651.2,561.8,643.9,561.5z"/>
			<path fill="#D1D3D4" d="M300.4,519.6c-0.3-3.5-4.6-6.2-9.8-6.2c-4.2,0-7.8,1.8-9.2,4.3c-1.8-1.4-4.4-2.2-7.3-2.2
				c-5.5,0-9.9,3-9.9,6.7c0,2.6,2.1,4.8,5.2,5.9c-1.5,1.2-2.4,2.7-2.4,4.4c0,3.7,4.4,6.6,9.8,6.6c1.9,0,3.6-0.4,5.1-1c0,0,0,0,0,0
				c-0.1,0.3-0.1,0.6-0.1,1c0,2.7,3.2,4.8,7.1,4.8c3.9,0,7.1-2.2,7.1-4.8c0-0.4-0.1-0.8-0.2-1.1c1.2,0.2,2.5,0.4,3.8,0.4
				c7.7,0,13.9-4.2,13.9-9.4C313.5,524,307.7,519.9,300.4,519.6z"/>
			<path fill="#D1D3D4" d="M689.2,578.8c-0.1-1.6-2-2.8-4.4-2.8c-1.9,0-3.5,0.8-4.1,1.9c-0.8-0.6-2-1-3.3-1c-2.5,0-4.4,1.3-4.4,3
				c0,1.1,0.9,2.1,2.3,2.6c-0.7,0.5-1.1,1.2-1.1,2c0,1.6,2,3,4.4,3c0.8,0,1.6-0.2,2.3-0.4c0,0,0,0,0,0c0,0.1-0.1,0.3-0.1,0.4
				c0,1.2,1.4,2.2,3.2,2.2c1.8,0,3.2-1,3.2-2.2c0-0.2,0-0.3-0.1-0.5c0.5,0.1,1.1,0.2,1.7,0.2c3.4,0,6.2-1.9,6.2-4.2
				C695.1,580.8,692.5,579,689.2,578.8z"/>
			<path fill="#D1D3D4" d="M362.2,503c-0.2-2.1-2.7-3.7-5.8-3.7c-2.5,0-4.6,1.1-5.4,2.6c-1.1-0.8-2.6-1.3-4.3-1.3
				c-3.2,0-5.9,1.8-5.9,4c0,1.5,1.2,2.8,3.1,3.5c-0.9,0.7-1.4,1.6-1.4,2.6c0,2.2,2.6,3.9,5.8,3.9c1.1,0,2.1-0.2,3-0.6c0,0,0,0,0,0
				c-0.1,0.2-0.1,0.4-0.1,0.6c0,1.6,1.9,2.8,4.2,2.8c2.3,0,4.2-1.3,4.2-2.8c0-0.2,0-0.5-0.1-0.7c0.7,0.1,1.5,0.2,2.3,0.2
				c4.5,0,8.2-2.5,8.2-5.5C369.9,505.6,366.5,503.2,362.2,503z"/>
			<path fill="#D1D3D4" d="M258.2,551.3c-0.1-1.6-2-2.8-4.4-2.8c-1.9,0-3.5,0.8-4.1,1.9c-0.8-0.6-2-1-3.3-1c-2.5,0-4.4,1.3-4.4,3
				c0,1.1,0.9,2.1,2.3,2.6c-0.7,0.5-1.1,1.2-1.1,2c0,1.6,2,3,4.4,3c0.8,0,1.6-0.2,2.3-0.4c0,0,0,0,0,0c0,0.1-0.1,0.3-0.1,0.4
				c0,1.2,1.4,2.2,3.2,2.2c1.8,0,3.2-1,3.2-2.2c0-0.2,0-0.3-0.1-0.5c0.5,0.1,1.1,0.2,1.7,0.2c3.4,0,6.2-1.9,6.2-4.2
				C264.1,553.2,261.5,551.4,258.2,551.3z"/>
		</g>
		<path fill="#F7941D" d="M496.2,482.3H367.8l-81.4,23.2v-81.3l57.2-39.7c0.4-46.3,12.3-102.9,32.7-155.9
			c7.5-19.4,33.6-82.7,55.8-82.7c22.3,0,48.4,63.3,55.8,82.7c20.4,53,32.3,109.7,32.7,156l57.1,39.6v81.3L496.2,482.3z"/>
		<path fill="#F1F2F2" d="M570.5,496v-68.2l-57.1-39.6c0-0.4,0-0.7,0-1.1c0-103.9-58.8-234.2-81.4-234.2
			c-22.6,0-81.4,130.3-81.4,234.2c0,0.3,0,0.7,0,1l-57.2,39.7V496l73.3-20.8h130.4L570.5,496z"/>
		<polygon fill="#F7941D" points="316.6,489.5 293.5,496 293.5,427.9 316.6,411.8 		"/>
		<path opacity="0.1" fill="#414042" d="M358.7,477.5c-5.7-30.5-24-59.7-32.7-72.2l34.9-24.2l26,88.4L358.7,477.5z"/>
		<polygon opacity="0.5" fill="#FFFFFF" points="301.3,431 301.3,455.6 309.1,435.2 337.8,408.5 		"/>
		<polygon fill="#F7941D" points="547.4,489.5 570.5,496 570.5,427.9 547.4,411.8 		"/>
		<path opacity="0.1" fill="#414042" d="M505.3,477.5c5.7-30.5,24-59.7,32.7-72.2L503.1,381l-26,88.4L505.3,477.5z"/>
		<polygon opacity="0.5" fill="#FFFFFF" points="565.2,431 565.2,455.6 557.4,435.2 528.7,408.5 		"/>
		<rect x="403.4" y="479.7" fill="#F7941D" width="57.4" height="24.7"/>
		<polygon fill="#939598" points="465.2,516.4 398.9,516.4 403.4,501.2 460.8,501.2 		"/>
		<rect x="377.8" y="461.3" fill="#D1D3D4" width="108.5" height="29.7"/>
		<polygon opacity="0.1" fill="#414042" points="486.3,468.5 387.5,476.1 486.3,484.7 		"/>
		<path fill="#F7941D" d="M352.5,354.2h159.2c-1.3-12.8-3.3-25.6-5.9-38.4H358.3C355.8,328.5,353.8,341.4,352.5,354.2z"/>
		<path fill="#F7941D" d="M391.6,209.9h80.8c-15.2-34.1-31-57-40.4-57C422.6,152.9,406.8,175.8,391.6,209.9z"/>
		<path fill="#F7941D" d="M354.6,440.6c2.2,13.1,5.2,25.6,8.9,35.5h137c3.7-10,6.8-22.4,8.9-35.5H354.6z"/>
		<path opacity="0.5" fill="#FFFFFF" d="M444.2,173.5c-0.2-0.2-0.5-0.4-0.7-0.7c-0.5-0.5-1-1-1.6-1.5c-11.1-9.7-20.6,1.3-20.6,1.3
			c-8.7,9.1-21.1,26.9-29.7,60.1c0,0,33.5-60.7,66.1-42.6C457.7,190.2,452.1,181.4,444.2,173.5z"/>
		<path fill="#9B9D9E" d="M481.6,294.8c0,27.4-22.2,49.5-49.5,49.5c-27.4,0-49.5-22.2-49.5-49.5c0-27.4,22.2-49.5,49.5-49.5
			C459.4,245.3,481.6,267.5,481.6,294.8z"/>
		<path fill="#FFFFFF" d="M465.8,294.8c0,18.6-15.1,33.7-33.7,33.7c-18.6,0-33.7-15.1-33.7-33.7c0-18.6,15.1-33.7,33.7-33.7
			C450.7,261.1,465.8,276.2,465.8,294.8z"/>
		<path fill="#27AAE1" d="M461.8,294.8c0,16.4-13.3,29.7-29.7,29.7c-16.4,0-29.7-13.3-29.7-29.7c0-16.4,13.3-29.7,29.7-29.7
			C448.5,265.2,461.8,278.4,461.8,294.8z"/>
		<g opacity="0.5">
			<path fill="#FFFFFF" d="M461.1,288.6c-0.9-4.3-2.8-8.2-5.3-11.6l-41.6,41.6c3.4,2.6,7.3,4.4,11.6,5.3L461.1,288.6z"/>
			<path fill="#FFFFFF" d="M432.1,265.2c-0.8,0-1.5,0-2.3,0.1l-27.3,27.3c-0.1,0.8-0.1,1.5-0.1,2.3c0,8.2,3.3,15.5,8.6,20.9l42-42
				C447.6,268.4,440.2,265.2,432.1,265.2z"/>
		</g>
		<path fill="#FFFFFF" d="M436.5,254.2c0,2.4-2,4.4-4.4,4.4c-2.4,0-4.4-2-4.4-4.4c0-2.4,2-4.4,4.4-4.4
			C434.5,249.8,436.5,251.8,436.5,254.2z M432.1,331.1c-2.4,0-4.4,2-4.4,4.4c0,2.4,2,4.4,4.4,4.4c2.4,0,4.4-2,4.4-4.4
			C436.5,333,434.5,331.1,432.1,331.1z M477.1,294.8c0-2.4-2-4.4-4.4-4.4c-2.4,0-4.4,2-4.4,4.4c0,2.4,2,4.4,4.4,4.4
			C475.1,299.2,477.1,297.3,477.1,294.8z M395.8,294.8c0-2.4-2-4.4-4.4-4.4c-2.4,0-4.4,2-4.4,4.4c0,2.4,2,4.4,4.4,4.4
			C393.9,299.2,395.8,297.3,395.8,294.8z M463.9,263c-1.7-1.7-4.5-1.7-6.2,0c-1.7,1.7-1.7,4.5,0,6.2c1.7,1.7,4.5,1.7,6.2,0
			C465.6,267.5,465.6,264.7,463.9,263z M406.5,320.5c-1.7-1.7-4.5-1.7-6.2,0c-1.7,1.7-1.7,4.5,0,6.2c1.7,1.7,4.5,1.7,6.2,0
			C408.2,324.9,408.2,322.2,406.5,320.5z M463.9,326.7c1.7-1.7,1.7-4.5,0-6.2c-1.7-1.7-4.5-1.7-6.2,0c-1.7,1.7-1.7,4.5,0,6.2
			C459.4,328.4,462.2,328.4,463.9,326.7z M406.5,269.2c1.7-1.7,1.7-4.5,0-6.2c-1.7-1.7-4.5-1.7-6.2,0c-1.7,1.7-1.7,4.5,0,6.2
			C402,270.9,404.7,270.9,406.5,269.2z"/>
	</g>
</g>
<path fill="#F7941D" d="M400,25c50.6,0,99.7,9.9,146,29.5c44.7,18.9,84.8,45.9,119.2,80.4c34.4,34.4,61.5,74.6,80.4,119.2
	c19.5,46.2,29.5,95.3,29.5,146s-9.9,99.7-29.5,146c-18.9,44.7-45.9,84.8-80.4,119.2c-34.4,34.4-74.6,61.5-119.2,80.4
	c-46.2,19.5-95.3,29.5-146,29.5s-99.7-9.9-146-29.5c-44.7-18.9-84.8-45.9-119.2-80.4c-34.4-34.4-61.5-74.6-80.4-119.2
	C34.9,499.7,25,450.6,25,400s9.9-99.7,29.5-146c18.9-44.7,45.9-84.8,80.4-119.2c34.4-34.4,74.6-61.5,119.2-80.4
	C300.3,34.9,349.4,25,400,25 M400,0C179.1,0,0,179.1,0,400s179.1,400,400,400s400-179.1,400-400S620.9,0,400,0L400,0z"/>
<g>
</g>
<g>
</g>
<g>
</g>
<g>
</g>
<g>
</g>
<g>
</g>
</svg>
