<?xml version="1.0" encoding="utf-8"?>
<!-- Generator: Adobe Illustrator 26.0.0, SVG Export Plug-In . SVG Version: 6.00 Build 0)  -->
<svg version="1.1" id="Layer_1" xmlns="http://www.w3.org/2000/svg" xmlns:xlink="http://www.w3.org/1999/xlink" x="0px" y="0px"
	 viewBox="0 0 1000 1000" style="enable-background:new 0 0 1000 1000;" xml:space="preserve">
<style type="text/css">
	.st0{fill:#9343F7;}
	.st1{fill:#D1D3D4;}
	.st2{fill:#F1F2F2;}
	.st3{opacity:0.1;fill:#414042;enable-background:new    ;}
	.st4{opacity:0.5;fill:#FFFFFF;enable-background:new    ;}
	.st5{fill:#939598;}
	.st6{fill:#9B9D9E;}
	.st7{fill:#FFFFFF;}
	.st8{fill:#27AAE1;}
	.st9{opacity:0.5;}
</style>
<path d="M500,985.5c-65.6,0-129.1-12.8-189-38.1c-57.8-24.5-109.7-59.5-154.3-104.1S77.1,746.8,52.6,689
	c-25.3-59.8-38.1-123.4-38.1-189s12.8-129.1,38.1-189c24.5-57.8,59.5-109.7,104.1-154.3S253.2,77.1,311,52.6
	c59.8-25.3,123.4-38.1,189-38.1s129.1,12.8,189,38.1c57.8,24.5,109.7,59.5,154.3,104.1s79.6,96.5,104.1,154.3
	c25.3,59.8,38.1,123.4,38.1,189s-12.8,129.1-38.1,189c-24.5,57.8-59.5,109.7-104.1,154.3S746.8,922.9,689,947.4
	C629.1,972.7,565.6,985.5,500,985.5z"/>
<path class="st0" d="M500,27c63.9,0,125.8,12.5,184.1,37.2C740.4,88,791,122.1,834.5,165.5c43.4,43.4,77.6,94,101.4,150.4
	C960.5,374.2,973,436.1,973,500s-12.5,125.8-37.2,184.1C912,740.4,877.9,791,834.5,834.5c-43.4,43.4-94,77.6-150.4,101.4
	C625.8,960.5,563.9,973,500,973s-125.8-12.5-184.1-37.2C259.6,912,209,877.9,165.5,834.5C122.1,791,88,740.4,64.1,684.1
	C39.5,625.8,27,563.9,27,500s12.5-125.8,37.2-184.1C88,259.6,122.1,209,165.5,165.5c43.4-43.4,94-77.6,150.4-101.4
	C374.2,39.5,436.1,27,500,27 M500,2C225,2,2,225,2,500s223,498,498,498s498-223,498-498S775,2,500,2L500,2z"/>
<g>
	<path class="st0" d="M230.5,587.8c-15.9,0-28.3-2.7-40.2-8.6c-11.1-5.5-22.6-15.1-29.1-21.6l-6.1-6.1l33.7-46.3l8.4,8.4
		c4.6,4.6,11.2,10,14.9,12.3c5.6,3.4,11.1,5,17.4,5c3.6,0,8.7-0.7,12.3-3.8l0.1-0.1c1.3-1.1,2.9-3.2,2.9-6.9c0-2.3-0.6-3.5-2.6-5.2
		c-3.5-2.9-14.3-6.9-17.9-8.2l-14.9-5.2c-9.7-3.4-20.7-7.9-29.2-17c-9-9.5-13.6-22.4-13.6-38.3c0-19,6.2-35,18.6-47.6
		c17.2-17.5,37.8-19.6,51.9-19.6c21.8,0,41.9,6.7,59.6,19.8l7.5,5.5L274.1,453l-9-8.1c-7.7-6.9-15.6-10.4-23.5-10.4
		c-5.2,0-8.3,0.9-10,2.9l-0.2,0.2l-0.2,0.2c-0.4,0.4-1.6,1.8-1.6,4.2c0,1.8,0.4,2.2,0.7,2.5l0.2,0.1c1.9,1.8,5.9,3.2,12.5,5.6
		c2.1,0.8,4.4,1.6,6.9,2.5l13.5,5.1c9.8,3.7,20,8.2,28,16c10.7,10.1,16.4,24.3,16.4,40.8c0,20.2-7,39.5-18.8,51.6
		C275.3,580.6,255.7,587.8,230.5,587.8z"/>
	<path d="M271.9,437.4c-13.5-12.2-25.1-13-30.3-13c-5.7,0-12.7,0.8-17.6,6.2c-2.7,2.7-4.6,6.8-4.6,11.4c0,4.3,1.4,7.6,4.1,10
		c4.3,4.1,10.5,5.7,22.7,10.3l13.5,5.1c7.8,3,17.6,7,24.6,13.8c10.5,10,13.2,23,13.2,33.5c0,18.7-6.5,34.9-16,44.6
		c-16,16.8-39.2,18.4-51.1,18.4c-13,0-24.3-1.9-35.7-7.6c-9.2-4.6-19.7-13-26.5-19.7l21.6-29.7c4.6,4.6,11.9,10.8,16.8,13.8
		c7,4.3,14.3,6.5,22.7,6.5c5.4,0,13-1.1,18.9-6.2c3.5-3,6.5-7.8,6.5-14.6c0-5.9-2.4-9.7-6.2-13c-4.9-4.1-16-8.1-21.1-10l-14.9-5.1
		c-8.4-3-18.1-6.8-25.1-14.3c-9.5-10-10.8-22.7-10.8-31.4c0-16,4.9-29.5,15.7-40.6c12.7-13,27.9-16.5,44.6-16.5
		c12.4,0,32.4,2.2,53.5,17.8L271.9,437.4z"/>
	<g>
		<path class="st0" d="M117.7,587.8c-7.8,0-13.9-1.3-19.7-4.2c-5.4-2.7-11.1-7.4-14.3-10.6l-3-3l16.5-22.7l4.1,4.1
			c2.3,2.3,5.5,4.9,7.3,6c2.7,1.7,5.4,2.5,8.5,2.5c1.8,0,4.3-0.3,6-1.9l0,0c0.6-0.5,1.4-1.6,1.4-3.4c0-1.1-0.3-1.7-1.3-2.6
			c-1.7-1.4-7-3.4-8.8-4l-7.3-2.6c-4.8-1.7-10.2-3.9-14.3-8.3c-4.4-4.7-6.7-11-6.7-18.8c0-9.3,3-17.2,9.1-23.4
			c8.4-8.6,18.6-9.6,25.5-9.6c10.7,0,20.6,3.3,29.3,9.7l3.7,2.7l-14.8,23.9l-4.4-4c-3.8-3.4-7.7-5.1-11.5-5.1
			c-2.6,0-4.1,0.4-4.9,1.4l-0.1,0.1l-0.1,0.1c-0.2,0.2-0.8,0.9-0.8,2.1c0,0.9,0.2,1.1,0.3,1.2l0.1,0c0.9,0.9,2.9,1.6,6.1,2.7
			c1,0.4,2.2,0.8,3.4,1.2l6.6,2.5c4.8,1.8,9.8,4,13.7,7.9c5.3,5,8,11.9,8,20c0,9.9-3.4,19.4-9.2,25.3
			C139.7,584.3,130.1,587.8,117.7,587.8z"/>
		<path d="M138.1,514c-6.6-6-12.3-6.4-14.9-6.4c-2.8,0-6.2,0.4-8.6,3c-1.3,1.3-2.3,3.3-2.3,5.6c0,2.1,0.7,3.7,2,4.9
			c2.1,2,5.2,2.8,11.1,5.1l6.6,2.5c3.8,1.5,8.6,3.4,12.1,6.8c5.2,4.9,6.5,11.3,6.5,16.4c0,9.2-3.2,17.1-7.9,21.9
			c-7.9,8.2-19.2,9-25.1,9c-6.4,0-11.9-0.9-17.5-3.7c-4.5-2.3-9.7-6.4-13-9.7l10.6-14.6c2.3,2.3,5.8,5.3,8.2,6.8
			c3.4,2.1,7,3.2,11.1,3.2c2.7,0,6.4-0.5,9.3-3c1.7-1.5,3.2-3.8,3.2-7.2c0-2.9-1.2-4.8-3-6.4c-2.4-2-7.9-4-10.4-4.9l-7.3-2.5
			c-4.1-1.5-8.9-3.3-12.3-7c-4.7-4.9-5.3-11.1-5.3-15.4c0-7.9,2.4-14.5,7.7-19.9c6.2-6.4,13.7-8.1,21.9-8.1c6.1,0,15.9,1.1,26.3,8.7
			L138.1,514z"/>
	</g>
	<path class="st0" d="M445.1,400.6c-17.4-15.4-38-17.4-54-17.4h-73.7v200.6h61.9v-63.3h15.3c14.8,0,36.5-2,53.2-19l0.1-0.1
		c12.1-12.6,18.2-29.2,18.2-49.5C466.1,429.8,459.2,413,445.1,400.6z M359.1,417.2h24.2c9.4,0,21.4,1.1,30.2,9.5
		c6.3,5.9,9.9,15,9.9,24.9c0,9.7-3.5,18.8-9.7,25l-0.1,0.1c-10,9.6-23.6,9.6-29.5,9.6h-25V417.2z"/>
	<path d="M438.4,408.2c-14.3-12.7-31.6-14.9-47.3-14.9h-63.5v180.4h41.6v-63.3h25.4c12.7,0,31.6-1.4,46-16
		c6.8-7,15.4-19.7,15.4-42.4C456,439.5,453.8,421.7,438.4,408.2z M413.7,476.7l-0.1,0.1c-10,9.6-23.6,9.6-29.5,9.6h-25v-69.2h24.2
		c9.4,0,21.4,1.1,30.2,9.5c6.3,5.9,9.9,15,9.9,24.9C423.4,461.4,419.9,470.5,413.7,476.7z"/>
	<path class="st0" d="M413.5,426.8c-8.9-8.5-20.8-9.5-30.2-9.5h-24.2v69.2h25c5.8,0,19.5,0,29.5-9.6l0.1-0.1
		c6.2-6.2,9.7-15.3,9.7-25C423.4,441.8,419.8,432.7,413.5,426.8z M406.5,469.6c-6.8,6.5-16.8,6.8-22.4,6.8h-14.9v-48.9h14.1
		c8.1,0,17,0.8,23.3,6.8c4.1,3.8,6.8,10,6.8,17.6C413.3,459.5,410.3,465.8,406.5,469.6z"/>
	<polygon class="st0" points="578.6,583.8 565.1,549.7 510.7,549.7 496.9,583.8 431.8,583.8 512.7,383.2 564.6,383.2 643.7,583.8 	
		"/>
	<polygon points="572,539.6 503.9,539.6 490.1,573.7 446.8,573.7 519.5,393.3 557.7,393.3 628.8,573.7 585.5,573.7 	"/>
	<polygon class="st0" points="501.5,517.8 538.5,417.8 575.1,517.8 	"/>
	<polygon points="560.6,507.7 538.5,447.1 516,507.7 	"/>
	<path class="st0" d="M734.2,587.8c-32,0-58.2-9.8-77.9-29.1c-20.1-19.5-31.2-46.3-31.2-75.7c0-28.6,11.4-56,31.2-75.2
		c19.2-18.6,45.6-28.8,74.4-28.8c14.9,0,30.4,3.5,47.3,10.8l6.1,2.6v80.3l-17.5-18.5c-10-10.6-21.8-16-34.8-16
		c-12.2,0-22,3.7-29.7,11.2c-8.9,8.6-14,21.2-14,34.4c0,17.7,7.9,27.9,12.6,32.5l0.1,0.1c3.7,3.7,14.1,12.2,31.8,12.2
		c7.8,0,19.9-1.6,34.3-15.7l17.2-16.9v78.2l-5.5,2.8C759.5,586.7,744.1,587.8,734.2,587.8z"/>
	<path d="M774,568c-16,8.1-28.9,9.7-39.7,9.7c-33.3,0-55.7-11.4-70.8-26.2c-16.3-15.7-28.2-39.5-28.2-68.4
		c0-28.4,11.9-52.2,28.1-67.9c16-15.4,39.2-26,67.3-26c11.9,0,25.7,2.4,43.3,10v48.1c-9.2-9.7-23-19.2-42.2-19.2
		c-15.1,0-27.3,4.9-36.8,14.1c-10,9.7-17,24.3-17,41.6c0,18.7,7.6,31.9,15.7,39.7c3.8,3.8,16.8,15.1,38.9,15.1
		c10.8,0,25.4-3,41.4-18.7V568z"/>
	<polygon class="st0" points="797.1,583.8 797.1,383.2 919.3,383.2 919.3,438.6 859,438.6 859,453.2 916.3,453.2 916.3,508.6 
		859,508.6 859,528.4 919.3,528.4 919.3,583.8 	"/>
	<polygon points="909.2,428.5 848.9,428.5 848.9,463.3 906.2,463.3 906.2,498.5 848.9,498.5 848.9,538.5 909.2,538.5 909.2,573.7 
		807.2,573.7 807.2,393.3 909.2,393.3 	"/>
	<g>
		<g>
			<path class="st1" d="M663.1,621H384.4c0-0.3,0-0.5,0.1-0.8c0.6-4.2,6.3-8.2,12.6-8.2c4.3,0,8,1.5,10.1,3.7c0-0.1,0-0.3,0-0.4
				c0-0.4,0-0.8,0-1.2c0-15.4,18.5-28,41.3-28c8.4,0,16.2,1.7,22.7,4.6c1.9-2.8,6.1-4.8,11-4.8c0.7,0,1.3,0,2,0.1
				c0-7,8.5-12.7,18.9-12.7c2.3,0,4.5,0.3,6.5,0.8c0-0.1,0-0.2,0.1-0.3c-0.1-0.4-0.2-0.8-0.2-1.2c0-4.7,5.7-8.6,12.7-8.6
				c1,0,1.9,0.1,2.8,0.2l7.1-12.6h11.7l7.2,12.9c5.3,1.1,9.3,4.2,10.2,8c1.6-0.4,3.4-0.7,5.3-0.7c8.1,0,14.7,4.5,14.7,10
				c0,0.4,0,0.9-0.1,1.3c0.1,0.3,0.1,0.6,0.1,0.9l0,0c11.5,0,21.1,5.3,23.7,12.5c5.1-1.6,10.8-2.4,16.8-2.4
				C644.1,594.2,662.2,606.1,663.1,621z"/>
		</g>
		<g>
			<path class="st1" d="M630.6,580.5c-0.1-1.5-2-2.7-4.3-2.7c-1.9,0-3.4,0.8-4,1.9c-0.8-0.6-1.9-1-3.2-1c-2.4,0-4.3,1.3-4.3,2.9
				c0,1.1,0.9,2.1,2.3,2.6c-0.7,0.5-1.1,1.2-1.1,1.9c0,1.6,1.9,2.9,4.3,2.9c0.8,0,1.6-0.2,2.2-0.4l0,0c0,0.1-0.1,0.3-0.1,0.4
				c0,1.2,1.4,2.1,3.1,2.1s3.1-0.9,3.1-2.1c0-0.2,0-0.3-0.1-0.5c0.5,0.1,1.1,0.2,1.7,0.2c3.4,0,6.1-1.8,6.1-4.1
				C636.3,582.4,633.8,580.6,630.6,580.5z"/>
			<path class="st1" d="M480.1,562.1c-0.1-1.5-2-2.7-4.3-2.7c-1.9,0-3.4,0.8-4,1.9c-0.8-0.6-1.9-1-3.2-1c-2.4,0-4.3,1.3-4.3,2.9
				c0,1.1,0.9,2.1,2.3,2.6c-0.7,0.5-1.1,1.2-1.1,1.9c0,1.6,1.9,2.9,4.3,2.9c0.8,0,1.6-0.2,2.2-0.4l0,0c0,0.1-0.1,0.3-0.1,0.4
				c0,1.2,1.4,2.1,3.1,2.1s3.1-0.9,3.1-2.1c0-0.2,0-0.3-0.1-0.5c0.5,0.1,1.1,0.2,1.7,0.2c3.4,0,6.1-1.8,6.1-4.1
				C485.9,564,483.3,562.2,480.1,562.1z"/>
			<path class="st1" d="M650.4,588c-0.1-0.7-0.9-1.2-1.9-1.2c-0.8,0-1.5,0.4-1.8,0.9c-0.4-0.3-0.9-0.4-1.4-0.4
				c-1.1,0-1.9,0.6-1.9,1.3c0,0.5,0.4,0.9,1,1.2c-0.3,0.2-0.5,0.5-0.5,0.9c0,0.7,0.9,1.3,1.9,1.3c0.4,0,0.7-0.1,1-0.2l0,0
				c0,0.1,0,0.1,0,0.2c0,0.5,0.6,0.9,1.4,0.9c0.8,0,1.4-0.4,1.4-0.9c0-0.1,0-0.1,0-0.2c0.2,0,0.5,0.1,0.8,0.1c1.5,0,2.7-0.8,2.7-1.8
				C653,588.9,651.8,588.1,650.4,588z"/>
			<path class="st1" d="M507.2,554.8c-0.1-0.9-1.2-1.6-2.5-1.6c-1.1,0-2,0.5-2.4,1.1c-0.5-0.3-1.1-0.6-1.9-0.6
				c-1.4,0-2.6,0.8-2.6,1.7c0,0.7,0.5,1.2,1.3,1.5c-0.4,0.3-0.6,0.7-0.6,1.1c0,0.9,1.1,1.7,2.5,1.7c0.5,0,0.9-0.1,1.3-0.3l0,0
				c0,0.1,0,0.2,0,0.2c0,0.7,0.8,1.2,1.8,1.2s1.8-0.6,1.8-1.2c0-0.1,0-0.2-0.1-0.3c0.3,0.1,0.6,0.1,1,0.1c2,0,3.6-1.1,3.6-2.4
				C510.6,556,509.1,554.9,507.2,554.8z"/>
			<path class="st1" d="M461.7,576c-0.1-0.7-0.9-1.2-1.9-1.2c-0.8,0-1.5,0.4-1.8,0.9c-0.4-0.3-0.9-0.4-1.4-0.4
				c-1.1,0-1.9,0.6-1.9,1.3c0,0.5,0.4,0.9,1,1.2c-0.3,0.2-0.5,0.5-0.5,0.9c0,0.7,0.9,1.3,1.9,1.3c0.4,0,0.7-0.1,1-0.2l0,0
				c0,0.1,0,0.1,0,0.2c0,0.5,0.6,0.9,1.4,0.9s1.4-0.4,1.4-0.9c0-0.1,0-0.1,0-0.2c0.2,0,0.5,0.1,0.8,0.1c1.5,0,2.7-0.8,2.7-1.8
				C464.3,576.8,463.1,576,461.7,576z"/>
		</g>
	</g>
	<g>
		<path class="st0" d="M565.9,545.8h-56.2l-35.6,10.1v-35.6l25-17.4c0.2-20.3,5.4-45.1,14.3-68.3c3.3-8.5,14.7-36.2,24.4-36.2
			c9.8,0,21.2,27.7,24.4,36.2c8.9,23.2,14.1,48,14.3,68.3l25,17.3v35.6L565.9,545.8z"/>
		<path class="st2" d="M598.4,551.8v-29.9l-25-17.3c0-0.2,0-0.3,0-0.5c0-45.5-25.8-102.5-35.6-102.5c-9.9,0-35.6,57-35.6,102.5
			c0,0.2,0,0.3,0,0.4l-25,17.4v29.9l32.1-9.1h57L598.4,551.8z"/>
		<polygon class="st0" points="487.3,548.9 477.1,551.8 477.1,521.9 487.3,514.9 		"/>
		<path class="st3" d="M505.7,543.7c-2.5-13.4-10.5-26.1-14.3-31.6l15.3-10.6l11.4,38.7L505.7,543.7z"/>
		<polygon class="st4" points="480.5,523.3 480.5,534.1 484,525.1 496.5,513.5 		"/>
		<polygon class="st0" points="588.3,548.9 598.4,551.8 598.4,521.9 588.3,514.9 		"/>
		<path class="st3" d="M569.9,543.7c2.5-13.4,10.5-26.1,14.3-31.6l-15.3-10.6l-11.4,38.7L569.9,543.7z"/>
		<polygon class="st4" points="596.1,523.3 596.1,534.1 592.7,525.1 580.1,513.5 		"/>
		<rect x="525.2" y="544.7" class="st0" width="25.1" height="10.8"/>
		<polygon class="st5" points="552.3,560.7 523.3,560.7 525.2,554 550.4,554 		"/>
		<rect x="514" y="536.6" class="st1" width="47.5" height="13"/>
		<polygon class="st3" points="561.6,539.7 518.3,543.1 561.6,546.8 		"/>
		<path class="st0" d="M502.9,489.7h69.7c-0.6-5.6-1.5-11.2-2.6-16.8h-64.6C504.4,478.4,503.5,484.1,502.9,489.7z"/>
		<path class="st0" d="M520.1,426.5h35.4c-6.6-15-13.6-24.9-17.7-24.9C533.7,401.6,526.8,411.5,520.1,426.5z"/>
		<path class="st0" d="M503.9,527.5c1,5.8,2.3,11.2,3.9,15.6h60c1.6-4.4,3-9.8,3.9-15.6H503.9z"/>
		<path class="st4" d="M543.1,410.6c-0.1-0.1-0.2-0.2-0.3-0.3c-0.2-0.2-0.4-0.4-0.7-0.6c-4.8-4.2-9,0.6-9,0.6
			c-3.8,4-9.2,11.8-13,26.3c0,0,14.7-26.6,28.9-18.7C549,417.9,546.6,414,543.1,410.6z"/>
		<path class="st6" d="M559.5,463.7c0,12-9.7,21.7-21.7,21.7s-21.7-9.7-21.7-21.7s9.7-21.7,21.7-21.7S559.5,451.7,559.5,463.7z"/>
		<path class="st7" d="M552.6,463.7c0,8.1-6.6,14.8-14.8,14.8c-8.1,0-14.8-6.6-14.8-14.8c0-8.2,6.6-14.8,14.8-14.8
			C546,448.9,552.6,455.5,552.6,463.7z"/>
		<path class="st8" d="M550.8,463.7c0,7.2-5.8,13-13,13s-13-5.8-13-13s5.8-13,13-13S550.8,456.5,550.8,463.7z"/>
		<g class="st9">
			<path class="st7" d="M550.5,460.9c-0.4-1.9-1.2-3.6-2.3-5.1L530,474c1.5,1.1,3.2,1.9,5.1,2.3L550.5,460.9z"/>
			<path class="st7" d="M537.8,450.7c-0.3,0-0.7,0-1,0l-12,12c0,0.3,0,0.7,0,1c0,3.6,1.4,6.8,3.8,9.2l18.4-18.4
				C544.6,452.1,541.4,450.7,537.8,450.7z"/>
		</g>
		<path class="st7" d="M539.7,445.9c0,1.1-0.9,1.9-1.9,1.9c-1.1,0-1.9-0.9-1.9-1.9c0-1.1,0.9-1.9,1.9-1.9
			C538.9,444,539.7,444.8,539.7,445.9z M537.8,479.6c-1.1,0-1.9,0.9-1.9,1.9c0,1.1,0.9,1.9,1.9,1.9c1.1,0,1.9-0.9,1.9-1.9
			C539.7,480.4,538.9,479.6,537.8,479.6z M557.5,463.7c0-1.1-0.9-1.9-1.9-1.9c-1.1,0-1.9,0.9-1.9,1.9c0,1.1,0.9,1.9,1.9,1.9
			C556.7,465.6,557.5,464.7,557.5,463.7z M521.9,463.7c0-1.1-0.9-1.9-1.9-1.9c-1.1,0-1.9,0.9-1.9,1.9c0,1.1,0.9,1.9,1.9,1.9
			C521.1,465.6,521.9,464.7,521.9,463.7z M551.7,449.8c-0.7-0.7-2-0.7-2.7,0s-0.7,2,0,2.7s2,0.7,2.7,0
			C552.5,451.7,552.5,450.5,551.7,449.8z M526.6,474.9c-0.7-0.7-2-0.7-2.7,0s-0.7,2,0,2.7s2,0.7,2.7,0S527.3,475.7,526.6,474.9z
			 M551.7,477.6c0.7-0.7,0.7-2,0-2.7s-2-0.7-2.7,0s-0.7,2,0,2.7C549.8,478.4,551,478.4,551.7,477.6z M526.6,452.5
			c0.7-0.7,0.7-2,0-2.7s-2-0.7-2.7,0s-0.7,2,0,2.7S525.8,453.2,526.6,452.5z"/>
	</g>
</g>
</svg>
